<?xml version="1.0" standalone="no"?>
<!DOCTYPE svg PUBLIC "-//W3C//DTD SVG 20010904//EN"
 "http://www.w3.org/TR/2001/REC-SVG-20010904/DTD/svg10.dtd">
<svg version="1.0" xmlns="http://www.w3.org/2000/svg"
 width="1920.000000pt" height="1080.000000pt" viewBox="0 0 1920.000000 1080.000000"
 preserveAspectRatio="xMidYMid meet">

<g transform="translate(0.000000,1080.000000) scale(0.100000,-0.100000)"
fill="#000000" stroke="none">
<path d="M1981 6817 c255 -153 443 -330 602 -567 66 -98 187 -330 187 -357 0
-10 150 -13 717 -13 410 0 713 4 707 9 -5 5 -350 230 -766 500 l-757 491 -397
0 -397 0 104 -63z"/>
<path d="M15930 6864 c-135 -16 -304 -58 -298 -74 2 -4 36 -32 77 -62 106 -75
162 -156 296 -419 135 -266 178 -331 238 -357 45 -20 176 -116 297 -219 l75
-64 75 79 c41 44 184 192 318 330 l242 250 -57 52 c-78 69 -183 148 -268 200
-174 107 -460 219 -660 259 -101 20 -270 32 -335 25z"/>
<path d="M12841 6769 c-376 -40 -714 -196 -974 -452 -195 -191 -363 -447 -403
-613 -27 -106 -24 -378 4 -506 65 -297 225 -584 450 -805 119 -118 132 -113
50 19 -91 147 -158 312 -194 480 -27 124 -25 370 4 505 73 339 279 702 528
932 224 206 430 311 844 428 13 4 13 5 0 13 -18 12 -194 11 -309 -1z"/>
<path d="M13180 6675 c-273 -40 -520 -156 -755 -356 -162 -137 -220 -199 -187
-199 5 0 50 25 100 55 237 143 436 199 702 198 181 0 288 -19 476 -84 567
-195 947 -603 1119 -1199 49 -170 59 -160 52 56 -6 191 -21 296 -62 438 -78
268 -205 483 -410 691 -226 229 -430 359 -620 394 -99 19 -309 22 -415 6z"/>
<path d="M8398 6388 c-142 -140 -244 -280 -332 -457 -431 -858 -77 -1901 788
-2320 151 -73 302 -120 486 -152 99 -18 422 -18 520 -1 296 52 551 160 775
327 105 78 275 249 350 353 72 100 167 262 163 280 -2 7 -178 136 -393 287
l-389 273 -32 -87 c-81 -227 -259 -402 -490 -481 -94 -32 -107 -34 -239 -35
-120 0 -151 3 -215 23 -273 86 -472 290 -546 562 -25 92 -25 282 0 370 33 116
38 103 -61 138 -304 109 -459 312 -440 575 8 105 37 209 92 325 24 50 42 92
40 92 -2 0 -37 -33 -77 -72z"/>
<path d="M12850 6189 c-95 -14 -275 -78 -365 -130 -341 -195 -555 -560 -555
-949 0 -162 45 -353 119 -497 139 -274 403 -482 717 -564 77 -21 112 -24 259
-23 152 0 181 3 268 27 386 104 676 393 784 782 26 92 28 114 27 275 0 158 -3
185 -27 275 -104 388 -404 683 -798 784 -98 26 -323 36 -429 20z m406 -174
c199 -50 391 -179 513 -344 165 -222 223 -488 166 -761 -80 -383 -412 -683
-805 -730 -338 -40 -691 120 -879 399 -55 81 -115 208 -135 288 -38 145 -38
341 0 486 36 142 132 305 244 417 235 235 569 326 896 245z"/>
<path d="M12840 5790 c-215 -53 -382 -185 -476 -375 -58 -116 -78 -211 -71
-335 13 -250 164 -476 392 -585 119 -57 203 -77 330 -77 127 0 211 20 330 77
228 109 379 335 392 585 7 124 -13 219 -71 335 -121 246 -371 396 -656 394
-57 0 -125 -8 -170 -19z m481 -216 c68 -31 131 -94 162 -162 16 -35 21 -67 21
-127 0 -96 -21 -150 -85 -220 -63 -69 -126 -97 -224 -103 -108 -5 -179 21
-251 92 -70 71 -98 144 -92 246 6 92 36 157 103 219 101 93 236 113 366 55z
m-438 -564 c50 -55 37 -141 -28 -175 -71 -39 -155 15 -155 99 0 49 21 83 64
102 43 19 86 10 119 -26z"/>
<path d="M14045 5870 c-4 -6 19 -50 50 -98 171 -270 232 -608 170 -932 -40
-207 -148 -463 -276 -656 -97 -145 -293 -343 -434 -436 -170 -112 -378 -206
-572 -258 -59 -16 -83 -27 -83 -38 0 -13 20 -14 158 -9 423 16 751 139 1045
392 103 88 231 235 318 363 127 186 168 304 176 512 6 153 -15 308 -62 460
-40 128 -144 332 -225 440 -67 88 -236 270 -252 270 -4 0 -10 -5 -13 -10z"/>
<path d="M16160 5509 c18 -19 45 -59 59 -89 23 -48 26 -68 26 -160 0 -128 -9
-152 -122 -301 -77 -103 -113 -166 -127 -221 l-6 -28 122 0 c136 0 178 -12
232 -66 39 -39 56 -83 56 -146 -1 -129 -91 -214 -251 -237 -175 -24 -384 68
-576 254 l-104 100 -232 -240 c-128 -132 -275 -284 -327 -338 l-95 -99 50 -45
c28 -24 94 -78 147 -118 444 -335 1129 -476 1582 -324 279 93 509 296 651 574
85 167 121 329 112 510 -6 140 -34 251 -98 384 -61 129 -121 213 -221 312
-189 188 -403 281 -673 293 -77 4 -162 9 -189 13 l-50 5 34 -33z"/>
<path d="M2770 5339 c0 -106 -2 -117 -51 -267 -132 -403 -310 -796 -522 -1147
-63 -104 -232 -359 -287 -432 l-32 -43 456 0 456 0 0 526 0 527 565 -7 565 -8
0 475 0 474 -187 6 c-104 4 -362 7 -575 7 l-388 0 0 -111z"/>
<path d="M11357 5213 c-4 -3 -7 -49 -7 -100 0 -496 198 -929 579 -1269 110
-97 193 -156 295 -208 162 -83 298 -112 485 -103 357 17 672 152 955 410 47
43 86 82 86 87 0 24 -41 14 -138 -35 -319 -161 -630 -195 -969 -105 -344 92
-690 313 -906 580 -137 170 -231 346 -308 581 -51 155 -60 175 -72 162z"/>
<path d="M6721 4918 c-78 -243 -251 -422 -487 -504 -57 -19 -123 -52 -176 -87
-248 -166 -563 -218 -968 -161 -136 19 -358 74 -502 123 -62 22 -114 38 -115
37 -5 -4 120 -191 160 -241 290 -358 691 -578 1157 -636 131 -16 376 -6 514
21 527 103 971 441 1211 920 59 118 99 221 88 230 -9 8 -820 361 -843 367 -12
3 -22 -15 -39 -69z"/>
<path d="M12595 3354 c-91 -22 -138 -60 -155 -125 -20 -74 27 -160 104 -189
18 -7 182 -11 465 -13 l436 -2 50 25 c70 35 98 80 93 148 -6 63 -29 98 -89
132 l-44 25 -420 2 c-231 1 -429 -1 -440 -3z"/>
<path d="M12598 2929 c-29 -16 -21 -53 25 -116 72 -97 153 -151 269 -178 121
-28 244 -14 356 42 59 30 163 134 190 190 16 34 16 35 -7 54 -22 18 -45 19
-420 19 -250 0 -402 -4 -413 -11z"/>
</g>
</svg>
